# xmcd CD database file
#
# Track frame offsets:
#	150
#	20850
#	43835
#	60372
#	74105
#	95675
#	123582
#	147372
#	157635
#	183902
#
# Disc length: 2721 seconds
#
# Revision: 0
# Processed by: cddbd v1.5.1PL0 Copyright (c) Steve Scherf et al.
# Submitted via: CDex 1.50
#
DISCID=8f0a9f0a
DTITLE=WAYNE SHORTER - A Collection
DYEAR=1900
DGENRE=Jazz
TTITLE0=Atlantis
TTITLE1=Beauty and the beast
TTITLE2=Criancas
TTITLE3=Diana
TTITLE4=Endangered species
TTITLE5=Mahogany bird
TTITLE6=Ponta de Areja
TTITLE7=Shere Khan, The Tiger
TTITLE8=The three Marias
TTITLE9=When you dream
EXTD=
EXTT0=
EXTT1=
EXTT2=
EXTT3=
EXTT4=
EXTT5=
EXTT6=
EXTT7=
EXTT8=
EXTT9=
PLAYORDER=
